<?xml version="1.0" encoding="UTF-8" standalone="no"?>
<svg width="1440px" height="1000px" viewBox="0 0 1440 1000" version="1.1" xmlns="http://www.w3.org/2000/svg" xmlns:xlink="http://www.w3.org/1999/xlink" xmlns:sketch="http://www.bohemiancoding.com/sketch/ns">
    <!-- Generator: Sketch 3.3.1 (12002) - http://www.bohemiancoding.com/sketch -->
    <title>stars</title>
    <desc>Created with Sketch.</desc>
    <defs></defs>
    <g id="Page-1" stroke="none" stroke-width="1" fill="none" fill-rule="evenodd" sketch:type="MSPage">
        <g id="stars" sketch:type="MSArtboardGroup" fill="#FFFFFF">
            <g id="Stars" sketch:type="MSLayerGroup">
                <g id="Large" transform="translate(90.000000, 53.000000)" sketch:type="MSShapeGroup" opacity="0.75">
                    <rect id="star-1" x="187" y="162" width="2" height="2"></rect>
                    <rect id="star-1-copy" x="372" y="226" width="2" height="2"></rect>
                    <rect id="star-1-copy-2" x="553" y="100" width="2" height="2"></rect>
                    <rect id="star-1-copy-3" x="846" y="586" width="2" height="2"></rect>
                    <rect id="star-1-copy-4" x="549" y="735" width="2" height="2"></rect>
                    <rect id="star-1-copy-5" x="806" y="429" width="2" height="2"></rect>
                    <rect id="star-1-copy-6" x="191" y="648" width="2" height="2"></rect>
                    <rect id="star-1-copy-7" x="897" y="898" width="2" height="2"></rect>
                    <rect id="star-1-copy-8" x="1155" y="513" width="2" height="2"></rect>
                    <rect id="star-1-copy-9" x="1257" y="853" width="2" height="2"></rect>
                    <rect id="star-1-copy-10" x="760" y="278" width="2" height="2"></rect>
                    <rect id="star-1-copy-11" x="424" y="489" width="2" height="2"></rect>
                    <rect id="star-1-copy-12" x="148" y="353" width="2" height="2"></rect>
                    <rect id="star-1-copy-13" x="596" y="399" width="2" height="2"></rect>
                    <rect id="star-1-copy-14" x="1307" y="0" width="2" height="2"></rect>
                    <rect id="star-1-copy-15" x="1229" y="691" width="2" height="2"></rect>
                    <rect id="star-1-copy-16" x="1008" y="620" width="2" height="2"></rect>
                    <rect id="star-1-copy-17" x="0" y="69" width="2" height="2"></rect>
                    <rect id="star-1-copy-18" x="134" y="814" width="2" height="2"></rect>
                </g>
                <g id="Small" transform="translate(35.000000, 40.000000)" sketch:type="MSShapeGroup" opacity="0.5">
                    <rect id="Rectangle-111" x="384" y="453" width="1" height="1"></rect>
                    <rect id="Rectangle-111-Copy" x="668" y="563" width="1" height="1"></rect>
                    <rect id="Rectangle-111-Copy-2" x="982" y="308" width="1" height="1"></rect>
                    <rect id="Rectangle-111-Copy-3" x="666" y="363" width="1" height="1"></rect>
                    <rect id="Rectangle-111-Copy-4" x="115" y="823" width="1" height="1"></rect>
                    <rect id="Rectangle-111-Copy-5" x="1058" y="825" width="1" height="1"></rect>
                    <rect id="Rectangle-111-Copy-6" x="382" y="698" width="1" height="1"></rect>
                    <rect id="Rectangle-111-Copy-7" x="1117" y="105" width="1" height="1"></rect>
                    <rect id="Rectangle-111-Copy-8" x="1282" y="331" width="1" height="1"></rect>
                    <rect id="Rectangle-111-Copy-9" x="859" y="46" width="1" height="1"></rect>
                    <rect id="Rectangle-111-Copy-10" x="288" y="44" width="1" height="1"></rect>
                    <rect id="Rectangle-111-Copy-11" x="41" y="306" width="1" height="1"></rect>
                    <rect id="Rectangle-111-Copy-12" x="114" y="438" width="1" height="1"></rect>
                    <rect id="Rectangle-111-Copy-13" x="154" y="609" width="1" height="1"></rect>
                    <rect id="Rectangle-111-Copy-14" x="0" y="75" width="1" height="1"></rect>
                    <rect id="Rectangle-111-Copy-15" x="590" y="0" width="1" height="1"></rect>
                    <rect id="Rectangle-111-Copy-16" x="1087" y="493" width="1" height="1"></rect>
                    <rect id="Rectangle-111-Copy-17" x="1323" y="52" width="1" height="1"></rect>
                    <rect id="Rectangle-111-Copy-18" x="435" y="883" width="1" height="1"></rect>
                    <rect id="Rectangle-111-Copy-19" x="39" y="827" width="1" height="1"></rect>
                    <rect id="Rectangle-111-Copy-20" x="517" y="655" width="1" height="1"></rect>
                    <rect id="Rectangle-111-Copy-21" x="768" y="821" width="1" height="1"></rect>
                    <rect id="Rectangle-111-Copy-22" x="720" y="716" width="1" height="1"></rect>
                    <rect id="Rectangle-111-Copy-23" x="911" y="759" width="1" height="1"></rect>
                    <rect id="Rectangle-111-Copy-24" x="1190" y="241" width="1" height="1"></rect>
                    <rect id="Rectangle-111-Copy-25" x="354" y="150" width="1" height="1"></rect>
                    <rect id="Rectangle-111-Copy-26" x="795" y="189" width="1" height="1"></rect>
                    <rect id="Rectangle-111-Copy-27" x="84" y="12" width="1" height="1"></rect>
                    <rect id="Rectangle-111-Copy-28" x="63" y="647" width="1" height="1"></rect>
                    <rect id="Rectangle-111-Copy-29" x="83" y="527" width="1" height="1"></rect>
                    <rect id="Rectangle-111-Copy-30" x="515" y="333" width="1" height="1"></rect>
                    <rect id="Rectangle-111-Copy-31" x="883" y="239" width="1" height="1"></rect>
                    <rect id="Rectangle-111-Copy-32" x="693" y="73" width="1" height="1"></rect>
                    <rect id="Rectangle-111-Copy-33" x="1056" y="211" width="1" height="1"></rect>
                    <rect id="Rectangle-111-Copy-34" x="317" y="365" width="1" height="1"></rect>
                    <rect id="Rectangle-111-Copy-35" x="783" y="507" width="1" height="1"></rect>
                    <rect id="Rectangle-111-Copy-36" x="242" y="559" width="1" height="1"></rect>
                    <rect id="Rectangle-111-Copy-37" x="1099" y="387" width="1" height="1"></rect>
                    <rect id="Rectangle-111-Copy-38" x="1305" y="465" width="1" height="1"></rect>
                    <rect id="Rectangle-111-Copy-39" x="1153" y="738" width="1" height="1"></rect>
                </g>
            </g>
        </g>
    </g>
</svg>